<svg width="165" height="170" viewBox="0 0 165 170" fill="none" xmlns="http://www.w3.org/2000/svg">
<path d="M105.475 107.703C105.441 108.35 105.298 108.992 105.421 109.644C105.428 109.678 105.728 110.389 105.84 110.287C106.34 109.828 106.994 107.133 106.247 106.76C105.421 106.346 104.888 108.532 104.821 109.011C104.759 109.454 105.062 109.885 105.357 110.19C105.544 110.385 105.544 109.768 105.572 109.633" stroke="white" stroke-width="3" stroke-linecap="round"/>
<path d="M114.642 102.782C114.551 106.021 113.02 108.855 111.533 111.638C110.851 112.913 110.654 114.205 110.396 115.615C110.216 116.603 110.31 117.625 110.155 118.617C110.043 119.332 110.289 119.957 110.289 120.649C110.289 121.092 110.107 121.544 109.957 121.952C109.718 122.598 109.549 123.267 109.313 123.914C108.904 125.036 108.692 126.019 107.984 127.023C107.115 128.254 106.482 129.558 105.48 130.706C104.879 131.395 104.285 131.934 103.781 132.7C102.774 134.231 101.928 136.216 100.554 137.433C100.297 137.661 99.9685 137.744 99.8355 138.066C99.6819 138.438 99.5399 138.866 99.2995 139.192C98.7539 139.93 98.3117 140.71 97.9593 141.572C97.5869 142.482 97.0648 143.421 96.3564 144.129C95.7477 144.738 95.2699 144.769 94.4427 144.756C93.1868 144.737 92.0375 144.44 90.8295 144.124C89.5701 143.794 88.2793 143.606 86.9913 143.427C85.9052 143.276 85.1938 142.957 84.2359 142.478C81.1697 140.945 78.1788 139.269 75.1549 137.653C72.8362 136.414 70.5074 135.128 68.5183 133.391C66.9186 131.994 65.4682 130.625 64.3209 128.84C63.8238 128.067 63.4196 127.281 63.1683 126.39C62.8916 125.409 62.9352 124.277 62.8467 123.26C62.7534 122.187 62.7288 121.13 62.7288 120.054C62.7288 118.915 62.9761 117.819 63.163 116.698C63.4868 114.755 63.9513 112.793 64.3691 110.866C64.7513 109.104 65.0282 107.308 65.3823 105.537C65.5186 104.856 65.527 102.762 65.527 103.457" stroke="white" stroke-width="3" stroke-linecap="round"/>
<path d="M88.4923 82.4219C87.7051 83.0421 87.0332 83.8382 86.3266 84.5448C85.7833 85.088 85.1499 85.61 84.6969 86.2387C84.2496 86.8596 84.1419 87.6599 83.9572 88.383C83.3329 90.8266 83.4893 93.5153 83.866 95.9952C84.0839 97.4294 84.1174 98.8933 84.1448 100.343C84.1656 101.447 84.1245 102.549 83.7963 103.613C83.3098 105.189 82.3338 106.561 81.309 107.832C80.7923 108.472 80.2811 109.23 79.615 109.729" stroke="white" stroke-width="3" stroke-linecap="round"/>
<path d="M92.8344 84.6413C91.9426 85.9294 91.6765 87.7382 91.6765 89.2729C91.6765 91.0523 92.9234 92.5464 93.7457 94.0493C94.3389 95.1333 94.4877 96.2393 94.6463 97.4533C94.6817 97.7242 95.0854 99.3406 94.7643 99.5011" stroke="white" stroke-width="3" stroke-linecap="round"/>
<path d="M94.8608 87.2466C95.7756 87.2114 96.642 87.2456 97.568 87.2787C99.294 87.3404 100.732 86.0745 102.194 85.3167C103.596 84.5906 104.479 83.0887 105.32 81.8001C105.904 80.9042 106.235 79.9067 106.633 78.9214C106.954 78.1269 107.376 77.3862 107.748 76.6163C108.09 75.9085 108.383 75.167 108.82 74.5095C109.453 73.5571 110.332 72.7958 111.2 72.0651C111.462 71.8445 111.699 71.5357 111.983 71.3467C112.278 71.1502 112.313 71.6959 112.396 71.8721C112.793 72.7182 113.33 73.3283 113.559 74.2629C113.726 74.9441 113.773 75.6445 113.773 76.3429" stroke="white" stroke-width="3" stroke-linecap="round"/>
<path d="M112.712 100.273C112.515 101.125 111.861 100.403 111.554 100.037C110.65 98.9594 110.054 97.6166 109.973 96.2096C109.804 93.3076 111.423 90.7157 112.208 88.0292C112.547 86.8704 112.752 85.6625 113.055 84.4912C113.345 83.3713 113.327 82.3666 113.05 81.2587C112.828 80.3719 112.447 79.5083 111.892 78.7767C111.508 78.2718 110.959 77.8972 110.589 77.4043" stroke="white" stroke-width="3" stroke-linecap="round"/>
<path d="M80.0973 85.2202C78.8621 88.3211 77.5961 91.141 74.9671 93.2881C73.9006 94.1591 72.7295 95.0986 71.4344 95.5985C69.2483 96.4424 66.6706 96.2754 64.369 96.3597C63.2399 96.4011 61.477 96.7129 60.4074 96.1882C59.7237 95.8528 59.3049 94.4593 58.9869 93.8081C58.5011 92.8133 58.5523 91.5436 58.0005 90.6238" stroke="white" stroke-width="3" stroke-linecap="round"/>
<path d="M80.1939 85.4132C79.9595 85.3871 79.7901 85.2332 79.5935 85.113C79.0834 84.8013 78.5666 84.5257 78.0175 84.2875C75.486 83.1891 73.2477 82.6265 70.4911 83.2582C67.8989 83.8522 65.2831 84.8552 63.1576 86.4746C62.2595 87.1589 61.4569 87.9591 60.5577 88.6403C60.3356 88.8085 60.1192 88.9834 59.834 88.9834" stroke="white" stroke-width="3" stroke-linecap="round"/>
<path d="M83.1853 76.0534C78.7103 76.3421 74.2239 77.2538 69.9015 78.4175C67.5253 79.0572 64.9885 79.7457 62.9647 81.2104C61.0785 82.5755 60.0561 84.7537 58.6601 86.555C57.1698 88.4779 55.6406 90.1449 53.4012 91.1063C52.8667 91.3357 50.1848 92.6657 50.1848 91.2993" stroke="white" stroke-width="3" stroke-linecap="round"/>
<path d="M81.8343 71.4218C81.6209 71.4774 81.4722 71.596 81.2875 71.7166C80.8706 71.9889 80.4766 72.0966 79.9956 72.2098C77.7967 72.7272 75.6602 73.5072 73.5467 74.2951C71.7534 74.9636 69.9991 75.7249 68.2181 76.4233C67.5809 76.6732 67.2837 77.0497 66.8136 77.5437C65.565 78.8558 64.0231 79.8267 62.584 80.9102C61.5833 81.6637 60.6067 82.4396 59.5231 83.0759C58.6879 83.5664 57.8344 84.0348 56.9017 84.3035C56.4981 84.4198 56.1106 84.6413 55.6848 84.6413" stroke="white" stroke-width="3" stroke-linecap="round"/>
<path d="M92.2554 72.3867C91.4882 71.2148 90.7156 70.1526 89.5482 69.3472C88.1289 68.368 86.5137 67.6512 84.9219 67.0046C83.059 66.2477 81.1273 65.5325 79.1377 65.198C76.8707 64.8168 74.5362 64.9979 72.2653 65.2516C69.772 65.5302 67.6803 65.9902 66.0737 68.0392C65.2768 69.0555 64.419 70.0967 63.79 71.2288" stroke="white" stroke-width="3" stroke-linecap="round"/>
<path d="M96.8872 71.3253C97.7313 69.7215 96.8287 67.7355 95.8043 66.4685C95.0132 65.49 93.9709 64.6405 92.8452 64.0776C92.6338 63.9719 92.1697 63.697 91.9661 63.7989" stroke="white" stroke-width="3" stroke-linecap="round"/>
<path d="M96.9836 76.2464C97.0343 76.2633 98.6506 72.6187 98.7634 72.4081C99.551 70.938 100.6 69.6599 101.776 68.4841C102.619 67.6414 103.463 66.7256 104.349 65.9324C105.364 65.0246 107.834 64.2299 109.002 65.3052C109.48 65.745 110.249 66.1812 110.493 66.7901" stroke="white" stroke-width="3" stroke-linecap="round"/>
<path d="M58.7726 120.826C58.6293 120.13 58.3281 119.372 57.9203 118.789C57.681 118.447 57.2488 118.218 56.9392 117.937C55.9178 117.008 55.2881 115.703 54.7199 114.457C53.0255 110.744 52.8442 106.188 54.2428 102.321C54.7835 100.826 55.4618 99.793 56.7891 98.9222C57.4266 98.5039 58.1368 98.0652 58.9013 97.9358C59.6949 97.8015 60.3118 98.2934 60.8847 98.7774C61.996 99.7163 62.9086 100.759 63.5007 102.096C63.8498 102.884 64.0848 103.757 64.4657 104.519" stroke="white" stroke-width="3" stroke-linecap="round"/>
<path d="M61.9567 108.957C61.4398 108.037 61.0099 107.097 60.6487 106.105C60.5932 105.953 60.4898 104.987 60.3485 104.91C60.0517 104.748 59.4898 104.745 59.2013 104.91C58.6211 105.242 58.1797 105.693 57.8825 106.298C57.5544 106.967 57.6305 107.461 57.711 108.185" stroke="white" stroke-width="3" stroke-linecap="round"/>
<path d="M61.378 108.475C60.1961 110.01 57.5107 112.425 58.3063 114.613C58.5468 115.274 58.9611 115.959 59.5768 116.328C59.7205 116.415 59.949 116.291 60.1235 116.291" stroke="white" stroke-width="3" stroke-linecap="round"/>
<path d="M101.712 110.019C101.568 112.07 101.416 114.117 101.347 116.173C101.3 117.587 101.173 119.28 102.039 120.499C102.294 120.858 102.733 120.963 103.009 121.325C103.158 121.519 103.676 122.109 103.545 122.37" stroke="white" stroke-width="3" stroke-linecap="round"/>
<path d="M103.545 122.37C102.502 123.141 101.503 123.804 100.361 124.375C99.91 124.6 99.5585 125.114 99.1064 125.265" stroke="white" stroke-width="3" stroke-linecap="round"/>
<path d="M86.3636 105.755C86.3622 105.73 86.3311 105.489 86.2842 105.59C86.2134 105.742 86.1262 105.889 86.0599 106.042C85.9679 106.254 85.8834 106.567 85.9667 106.794C86.0477 107.015 86.3187 107.088 86.5189 106.974C86.9116 106.751 87.3037 106.002 87.0867 105.559C87.0056 105.393 86.8174 105.244 86.6501 105.172C86.6006 105.151 86.4216 105.095 86.3705 105.141C86.1202 105.366 86.0216 105.715 85.9908 106.035C85.9534 106.425 85.9133 107.088 86.4516 107.088C86.8995 107.088 86.9694 106.44 86.997 106.121C87.0316 105.721 86.9662 105.394 86.7985 105.034C86.754 104.938 86.7097 104.761 86.581 104.761" stroke="white" stroke-width="3" stroke-linecap="round"/>
<path d="M91.5083 129.492C93.1558 130.021 94.5899 131.165 96.3285 131.376C97.5994 131.531 98.5733 131.182 99.645 130.539" stroke="white" stroke-width="3" stroke-linecap="round"/>
<path d="M60.8731 120.409C60.8731 121.343 61.0444 122.467 60.7804 123.375C60.3672 124.795 60.0471 126.24 59.5856 127.655C59.2827 128.583 58.6578 129.88 59.0294 130.889C59.3471 131.751 59.7256 132.677 60.3169 133.387" stroke="white" stroke-width="3" stroke-linecap="round"/>
<path d="M60.4097 133.294C61.0177 132.8 61.6551 132.342 62.274 131.862C62.4831 131.7 62.9499 131.442 63.0001 131.115C63.1362 130.231 63.3059 129.342 63.2782 128.443C63.2506 127.544 63.1817 126.616 63.0053 125.734C62.9368 125.391 62.7272 125.1 62.7272 124.765" stroke="white" stroke-width="3" stroke-linecap="round"/>
<path d="M51.8812 106.967C50.9223 108.304 50.1948 109.834 48.575 110.448C47.7796 110.75 46.7297 110.97 46.0206 111.417C45.4414 111.781 45.3674 111.404 45.2996 110.86" stroke="white" stroke-width="3" stroke-linecap="round"/>
<path d="M48.6368 111.509C47.6556 112.654 46.6402 113.712 46.0619 115.125C45.6406 116.154 45.1632 117.467 45.8713 118.467C46.7823 119.753 48.539 120.687 50.12 120.687" stroke="white" stroke-width="3" stroke-linecap="round"/>
<path d="M56.2383 118.833C54.4762 120.654 52.7423 123.319 53.3646 125.95C53.5837 126.877 54.0125 127.55 54.7087 128.19C55.0519 128.506 55.4939 129.03 55.9602 129.03" stroke="white" stroke-width="3" stroke-linecap="round"/>
<path d="M52.9937 102.054C51.6232 102.185 50.1601 102.388 48.8326 102.754C48.2945 102.903 47.5152 103.328 46.9271 103.125C45.2609 102.55 43.7489 100.1 44.1873 98.346" stroke="white" stroke-width="3" stroke-linecap="round"/>
<path d="M49.2856 92.8767C49.3868 94.2929 49.3686 95.95 50.2229 97.1461C51.063 98.3222 51.9684 99.1932 53.4623 99.3863C54.676 99.5433 56.019 99.4329 57.0621 98.7374C57.4809 98.4582 57.4933 98.1318 57.7213 97.7898" stroke="white" stroke-width="3" stroke-linecap="round"/>
<path d="M57.0725 72.112C57.4614 73.5379 57.7054 75.5784 59.6321 75.3771C60.897 75.2449 62.566 74.3339 63.1392 73.1677C63.5828 72.2652 63.9798 71.3553 64.4885 70.4846C64.7387 70.0564 64.8667 69.5516 65.1374 69.1456" stroke="white" stroke-width="3" stroke-linecap="round"/>
<path d="M118.254 80.6404C119.985 81.8281 121.768 83.503 122.745 85.3784C123.198 86.2485 123.131 88.2328 124.28 88.5199" stroke="white" stroke-width="3" stroke-linecap="round"/>
<path d="M118.069 85.8316C119.549 86.6309 120.511 87.9967 121.252 89.4932C122.05 91.1048 122.105 92.8097 122.621 94.499C122.861 95.2808 123.094 95.7297 123.6 96.2963C124.542 97.3523 125.316 98.548 126.319 99.5511" stroke="white" stroke-width="3" stroke-linecap="round"/>
<path d="M117.327 92.5986C119.042 93.2583 119.984 94.316 120.232 96.1367C120.589 98.7517 119.783 101.22 119.655 103.81C119.609 104.741 119.773 105.661 120.572 106.277C121.382 106.901 122.654 106.967 123.631 106.967" stroke="white" stroke-width="3" stroke-linecap="round"/>
<path d="M61.5174 132.966C60.9103 134.846 60.2976 136.748 59.6763 138.612" stroke="white" stroke-width="3" stroke-linecap="round"/>
<path d="M59.0625 141.067C61.5237 144.095 63.7597 147.088 65.6905 150.491C66.3385 151.633 66.8686 152.786 67.5043 153.927C68.1836 155.147 69.2941 155.976 70.5046 156.628C71.5398 157.185 72.6607 157.581 73.6617 158.203C74.9006 158.972 76.0536 159.935 77.2621 160.76C78.5246 161.622 79.512 162.776 80.7466 163.665C81.8206 164.438 82.9488 164.988 83.9719 165.854C84.5624 166.353 85.3439 166.951 86.1335 167.095C86.5588 167.172 87.4013 167.838 87.7837 167.456C88.5223 166.717 89.5437 165.772 89.8702 164.756C90.1595 163.856 90.4236 162.823 90.634 161.905C90.9597 160.484 91.6315 159.146 91.9568 157.719C92.2003 156.65 91.9181 155.785 91.534 154.773C90.9677 153.28 90.8666 152.172 91.3431 150.572C91.7798 149.106 92.131 147.347 92.816 145.977" stroke="white" stroke-width="3" stroke-linecap="round"/>
<path d="M16.1528 61.8064C16.9472 65.6565 17.957 68.9863 20.4027 72.1307C21.6673 73.7567 23.0758 75.2687 24.4559 76.7957C26.156 78.6769 27.799 80.7916 29.8748 82.2802C31.0912 83.1525 32.5246 83.6798 33.7969 84.4652C35.4417 85.4805 37.1262 86.7768 39.0738 87.1309C39.9238 87.2855 40.52 86.9422 41.3243 86.7813" stroke="white" stroke-width="3" stroke-linecap="round"/>
<path d="M14.9728 57.8734C15.352 57.9681 15.6945 58.1468 16.0435 58.3213C17.695 59.1471 19.2746 59.6913 21.1128 60.0038C28.878 61.3238 37.0782 61.1419 44.9078 60.6156C49.3108 60.3196 54.1062 60.2149 58.3676 58.9659C59.0592 58.7631 61.2092 58.2208 61.5796 57.48" stroke="white" stroke-width="3" stroke-linecap="round"/>
<path d="M118.806 61.6098C120.681 61.8876 122.573 61.8064 124.465 61.8064C129.672 61.8064 134.871 61.9382 140.077 61.9921C142.574 62.018 145.363 62.293 147.823 61.719C148.198 61.6314 148.297 61.5215 148.5 61.2165" stroke="white" stroke-width="3" stroke-linecap="round"/>
<path d="M62.3662 55.1202C60.0636 50.204 57.831 45.644 54.4564 41.3545C50.8711 36.7973 47.7863 31.9696 43.8153 27.7199C41.3686 25.1016 39.1555 22.661 36.1021 20.706C34.3849 19.6065 32.7455 18.4395 31.011 17.3629C30.475 17.0302 29.5454 15.7533 29.0226 15.6039C27.8666 15.2736 26.8657 14.8553 25.7887 14.1727C24.3361 13.252 23.7249 12.4456 22.0086 12.0641C19.9892 11.6154 17.258 11.6338 15.2132 12.0532C13.5081 12.403 11.8241 12.6432 10.0784 12.6432C7.39632 12.6432 5.25421 14.1217 2.73664 14.8828C2.035 15.095 1.6999 15.276 2.34334 14.566C3.40658 13.3928 4.80239 12.5797 6.09067 11.6818C8.78212 9.80591 11.8184 9.08771 14.9728 8.27312C22.3971 6.35585 29.4085 3.46687 37.0854 2.61388C42.7589 1.98349 48.4471 1.81398 54.1395 2.22058C60.0238 2.64088 64.7976 5.46317 70.0466 7.82519C72.6869 9.01331 74.9745 10.4862 77.7925 11.2666C80.868 12.1183 83.7137 13.8943 86.62 15.1997C87.7087 15.6887 88.9517 16.12 89.8976 16.8603C91.3824 18.0223 92.6409 19.5262 94.0273 20.8043C95.9816 22.6059 97.9079 24.7822 99.5336 26.8896C101.195 29.0433 102.849 31.1603 104.734 33.1388C106.857 35.3675 109.617 36.6893 111.748 38.8199C113.197 40.2687 114.44 42.2676 115.615 43.9547C116.338 44.9912 116.823 46.2125 117.473 47.2978C118.187 48.4907 119.079 49.6148 119.68 50.8703C120.183 51.9236 120.79 52.6658 121.067 53.831C121.285 54.7443 121.614 55.6146 121.799 56.5405C122.165 58.3677 122.967 59.9972 123.329 61.8064" stroke="white" stroke-width="3" stroke-linecap="round"/>
<path d="M81.9001 55.682C83.9099 54.0644 86.7741 52.4164 87.4842 49.7439C87.7057 48.9103 87.6338 46.3792 87.9187 47.1932C88.4028 48.5763 88.7412 49.6972 89.5924 50.9267C90.9179 52.8414 91.9003 54.964 93.6316 56.551" stroke="white" stroke-width="3" stroke-linecap="round"/>
<path d="M82.9141 50.1784C84.7469 52.1523 86.468 54.3219 88.4257 56.1728C89.4199 57.1128 89.3771 56.2418 90.0109 55.328C91.2118 53.5964 92.2917 51.7693 93.5432 50.0738C94.1287 49.2805 95.0686 49.0534 95.8042 48.4404" stroke="white" stroke-width="3" stroke-linecap="round"/>
<path d="M131.812 90.0205C139.606 87.1864 149.119 84.8104 154.975 78.405C156.868 76.3348 158.413 73.3554 159.617 70.8168C160.421 69.1211 161.074 67.6812 161.505 65.8567C161.804 64.5921 162.239 63.3198 162.518 62.0683C162.763 60.9623 158.746 62.1983 158.206 62.273C154.279 62.8162 150.112 62.9898 146.147 62.9898" stroke="white" stroke-width="3" stroke-linecap="round"/>
<path d="M76.9316 35.3447C79.0577 33.5494 81.048 31.0476 81.8918 28.3709C82.3257 26.9942 82.4374 25.5399 82.4606 24.1047C82.4701 23.5132 82.4606 25.5674 82.4606 25.6405C82.4606 28.1859 82.4463 30.4551 83.8371 32.694C84.4928 33.7494 85.3108 34.8063 86.2604 35.6178C86.3302 35.6774 86.976 36.0084 86.7951 35.9249C85.1646 35.1724 83.7504 33.7809 82.1648 32.8874C80.8956 32.1722 79.4577 31.6365 78.4105 30.5893C77.3816 29.5604 76.8022 28.1324 76.249 26.8123C75.3979 24.7812 77.2574 26.4085 78.2058 26.9033C80.8116 28.2629 83.9493 28.3991 86.8292 28.5415C87.7245 28.5858 88.7113 28.6845 89.6051 28.5415C89.8172 28.5076 90.0881 28.279 89.6506 28.5415C88.4841 29.2414 87.4569 30.1323 86.2604 30.7941C84.3675 31.841 82.353 32.647 80.4583 33.6951C78.984 34.5107 77.5143 35.3591 76.249 36.4824C76.0332 36.6739 74.7505 38.1466 75.6005 36.9716C77.8614 33.8462 81.1784 31.5743 83.3138 28.3368C83.5223 28.0207 83.8713 26.9683 83.8713 27.347C83.8713 28.1932 83.1705 29.0904 82.7564 29.7702C82.7397 29.7976 81.7313 31.352 81.6756 31.1013C81.62 30.8513 81.8655 30.4236 82.0055 30.2253C82.1561 30.0119 84.2489 30.8938 84.7587 30.7941C85.108 30.7257 86.124 29.8157 85.9418 29.8157" stroke="white" stroke-width="3" stroke-linecap="round"/>
<path d="M28.7326 75.7142C31.009 74.2809 33.9895 72.014 34.6839 69.236C34.8185 68.6979 34.9866 67.045 34.9866 67.5997C34.9866 68.9448 35.0638 70.272 35.1883 71.6121C35.3435 73.2831 35.4886 74.9047 35.9504 76.5211C36.108 77.0726 36.6833 78.6683 36.3651 78.1911C35.7122 77.2118 34.8155 76.2194 33.9778 75.4004C32.8973 74.3438 31.0867 73.9238 30.212 72.6993C29.8336 72.1696 29.7269 71.4253 29.5395 70.8163C29.4376 70.485 30.5691 70.6706 30.8396 70.6706C35.0613 70.6706 39.1588 71.7144 43.3476 72.1725C44.0722 72.2518 44.6216 72.1108 43.8295 72.4079C42.2864 72.9866 40.7034 73.2184 39.0886 73.5399C36.1033 74.1342 33.1048 74.9171 30.0551 75.0865C29.8141 75.0999 28.339 75.3008 28.5308 75.109" stroke="white" stroke-width="3" stroke-linecap="round"/>
<path d="M142.814 68.9161C141.718 68.4843 140.371 68.0291 139.267 68.6363C137.965 69.3524 136.604 70.46 135.721 71.6583C135.316 72.2075 134.856 73.1002 135.413 73.7079C136.291 74.6664 137.427 75.6204 138.505 76.3312C139.936 77.2757 142.198 78.1402 143.968 77.5694C144.839 77.2884 145.876 76.6072 146.409 75.8415C146.452 75.7801 146.824 74.7642 146.717 74.7642C146.45 74.7642 145.689 75.4043 145.43 75.5337C144.818 75.8396 143.982 76.4062 143.29 76.4711C142.793 76.5177 142.431 76.216 142.037 75.9534C141.195 75.3918 140.389 74.8516 139.792 74.0227C139.557 73.6961 139.116 73.4181 138.966 73.0434C138.844 72.7372 138.91 72.3329 138.91 72.0081C138.91 71.2958 140.355 70.4033 140.925 70.0774C141.882 69.5304 143.313 68.8081 144.374 69.4758C145.144 69.9609 144.387 69.7615 144.059 69.3429C143.474 68.5953 143 68.0015 142.128 67.7269C140.684 67.2723 139.796 67.3995 138.435 67.9788C137.441 68.4017 136.255 69.8004 136.021 70.8539C135.778 71.9485 136.361 72.5352 137.281 73.0714C137.624 73.2717 138.008 73.4045 138.351 73.603C138.592 73.7425 138.782 74.352 138.91 74.5824" stroke="white" stroke-width="3" stroke-linecap="round"/>
<path d="M58.3962 12.9136C57.3426 12.4414 56.2775 11.8738 55.0979 11.8297C54.204 11.7962 53.2804 11.9472 52.4268 12.2013C51.7697 12.3969 50.7731 12.6292 50.2744 13.1536C50.002 13.44 49.875 13.9712 49.7866 14.3382C49.2036 16.7599 49.3924 19.9405 51.3583 21.6935C52.1189 22.3718 52.9043 22.7408 53.9288 22.793C54.8584 22.8403 56.329 23.0133 57.1651 22.4987C57.6911 22.175 58.0249 21.5326 58.4891 21.1283C58.6255 21.0096 58.7546 20.9253 58.551 21.0819C58.4444 21.1639 58.359 21.1821 58.2181 21.2058C57.6794 21.2963 57.139 21.3802 56.5999 21.469C55.9329 21.5788 55.1595 21.7619 54.5095 21.4845C53.9738 21.2558 53.4839 20.9422 53.0307 20.5786C52.6596 20.2809 52.0625 19.8888 51.877 19.4327C51.3987 18.2562 51.8672 16.5032 52.5042 15.4609C53.1301 14.4366 54.4681 13.3244 55.6012 12.9562C56.7221 12.5919 58.3267 12.8398 59.2595 13.5446C59.4401 13.6811 60.4311 14.7765 59.9214 14.1253C59.7011 13.8438 59.4066 13.6098 59.1201 13.3975C58.7719 13.1395 58.4654 12.7767 58.0439 12.6426C57.1946 12.3724 56.0398 12.1385 55.1598 12.3252C54.6638 12.4304 54.1274 12.5834 53.7585 12.9523C52.8542 13.8565 52.5429 15.2711 52.5429 16.5061C52.5429 17.2916 52.912 18.0449 53.2358 18.7437C53.3854 19.0664 53.5626 19.5007 53.7739 19.7889C54.2992 20.5051 55.0746 21.0664 55.8876 21.4148" stroke="white" stroke-width="3" stroke-linecap="round"/>
<path d="M79.928 30.125C80.0659 30.0659 79.7676 29.6652 79.7189 29.5831C79.593 29.3707 80.7047 29.5464 80.8028 29.5753C81.3655 29.7414 81.886 30.0083 82.4559 30.156C82.6705 30.2117 82.6158 30.1349 82.7152 29.9857" stroke="white" stroke-width="3" stroke-linecap="round"/>
<path d="M81.1822 30.9612C81.5888 30.4191 82.0149 29.892 82.4326 29.3585C82.795 28.8957 83.3582 28.3187 83.6056 27.7559C83.6791 27.5887 83.6211 27.2773 83.6211 27.0977C83.6211 26.3364 83.6211 25.5751 83.6211 24.8137C83.6211 24.1834 83.763 23.3819 83.6056 22.7697C83.5488 22.5489 83.3309 22.7847 83.3423 22.4755C83.3476 22.3343 83.4478 21.5213 83.3965 22.0419C83.2561 23.4697 82.8948 24.9186 82.5062 26.3003C82.2398 27.2474 81.8338 28.121 81.4609 29.0256C81.3442 29.3089 81.1565 29.6317 81.1125 29.9392C81.0658 30.2667 81.3306 29.3141 81.4609 29.0101" stroke="white" stroke-width="3" stroke-linecap="round"/>
</svg>
