<svg width="637" height="89" viewBox="0 0 637 89" fill="none" xmlns="http://www.w3.org/2000/svg">
<path d="M295.125 79.2796L229.185 73.299L271.918 4.20606L310.976 73.299L295.125 79.2796Z" fill="#303030"/>
<path d="M295.125 79.2796L229.185 73.299L271.918 4.20606M295.125 79.2796L310.976 73.299L271.918 4.20606M295.125 79.2796L271.918 4.20606" stroke="#13E000" stroke-width="2"/>
<path d="M260.988 52.1422C260.753 52.0522 260.519 51.9442 260.279 51.8719C259.635 51.6787 258.985 51.5789 258.311 51.6076C258.09 51.6203 257.839 51.5343 257.642 51.4139C256.88 50.9507 256.369 50.244 256.04 49.3812C255.903 49.0262 255.933 48.6483 256.016 48.2851C256.086 47.9749 256.313 47.8867 256.553 48.0838C256.761 48.2535 256.935 48.4668 257.134 48.6496C257.386 48.8782 257.643 49.1069 257.913 49.3091C258.105 49.4517 258.325 49.4613 258.566 49.4402C258.9 49.4123 259.244 49.4427 259.58 49.4772C260.032 49.5234 260.492 49.5654 260.935 49.6603C261.431 49.7699 261.892 49.9677 262.103 50.5383C262.15 50.6685 262.25 50.6396 262.319 50.5566C262.422 50.4254 262.521 50.2897 262.595 50.14C263.14 49.0616 263.5 47.9076 263.831 46.744C264.099 45.7971 264.342 44.8453 264.424 43.8585C264.465 43.3784 264.484 42.8979 264.529 42.4179C264.541 42.2757 264.606 42.1347 264.664 41.998C264.725 41.8524 264.831 41.7748 264.993 41.7785C265.164 41.7825 265.286 41.8655 265.32 42.0311C265.387 42.3311 265.451 42.6354 265.473 42.9432C265.517 43.5188 265.487 44.1015 265.56 44.6733C265.772 46.2593 266.176 47.7919 266.887 49.2069C267.065 49.5674 267.328 49.8809 267.565 50.2071C267.63 50.2932 267.741 50.3447 267.827 50.4136C268.658 49.5333 269.662 49.2851 270.766 49.3554C271.688 49.4126 272.522 49.1114 273.283 48.5903C273.685 48.3146 274.046 47.9757 274.403 47.6366C274.531 47.5149 274.637 47.4372 274.801 47.5034C274.983 47.5744 275.1 47.7197 275.074 47.924C275.048 48.1327 274.997 48.3497 274.91 48.5347C274.547 49.2789 274.005 49.8497 273.355 50.2977C272.458 50.9181 271.477 51.2782 270.404 51.3066C270.204 51.3108 270.004 51.3418 269.803 51.3772C269.707 51.3928 269.615 51.4441 269.518 51.4774C269.514 51.4996 269.509 51.5262 269.504 51.5483C269.627 51.6313 269.741 51.7276 269.872 51.8019C270.459 52.1229 271.046 52.4305 271.633 52.7471C271.818 52.8494 271.99 52.9736 272.174 53.0759C272.802 53.438 273.111 54.0598 273.34 54.7421C273.422 54.9889 273.445 55.2478 273.33 55.4991C273.269 55.6312 273.206 55.6609 273.071 55.5865C272.365 55.2093 271.632 54.8938 270.836 54.7995C270.774 54.7936 270.712 54.7787 270.649 54.7862C269.591 54.8684 268.739 54.3452 267.914 53.7425C267.758 53.632 267.616 53.4995 267.482 53.3628C267.344 53.2171 267.183 53.1777 267.031 53.281C266.836 53.4145 266.629 53.5656 266.5 53.7629C266.293 54.0743 266.135 54.4269 265.985 54.7752C265.739 55.3396 265.521 55.9179 265.275 56.4822C265.222 56.6012 265.108 56.6877 265.022 56.7881C264.942 56.6837 264.844 56.588 264.785 56.4708C264.293 55.4839 263.809 54.4929 263.33 53.5019C263.179 53.1955 263.059 53.1571 262.789 53.3422C262.713 53.3939 262.641 53.4546 262.581 53.5245C261.961 54.2493 261.165 54.6582 260.322 54.9726C259.865 55.1401 259.389 55.0621 258.92 55.0289C258.724 55.0154 258.529 55.0064 258.343 54.9709C257.95 54.8949 257.614 55.0429 257.281 55.2445C257.078 55.3689 256.859 55.4707 256.633 55.5367C256.395 55.6069 256.244 55.4652 256.23 55.2022C256.203 54.7695 256.381 54.4441 256.682 54.1795C257.226 53.7022 257.864 53.4321 258.518 53.2113C258.866 53.0948 259.229 53.0231 259.581 52.9022C259.95 52.7771 260.311 52.6208 260.669 52.4643C260.786 52.4137 260.88 52.3089 260.99 52.2314C260.991 52.2047 260.987 52.1734 260.988 52.1422Z" fill="white"/>
<path d="M185.125 79.2796L119.185 73.299L161.918 4.20606L200.976 73.299L185.125 79.2796Z" fill="#303030"/>
<path d="M185.125 79.2796L119.185 73.299L161.918 4.20606M185.125 79.2796L200.976 73.299L161.918 4.20606M185.125 79.2796L161.918 4.20606" stroke="#FFCC00" stroke-width="2"/>
<path d="M150.988 52.1422C150.753 52.0522 150.519 51.9442 150.279 51.8719C149.635 51.6787 148.985 51.5789 148.311 51.6076C148.09 51.6203 147.839 51.5343 147.642 51.4139C146.88 50.9507 146.369 50.244 146.04 49.3812C145.903 49.0262 145.933 48.6483 146.016 48.2851C146.086 47.9749 146.313 47.8867 146.553 48.0838C146.761 48.2535 146.935 48.4668 147.134 48.6496C147.386 48.8782 147.643 49.1069 147.913 49.3091C148.105 49.4517 148.325 49.4613 148.566 49.4402C148.9 49.4123 149.244 49.4427 149.58 49.4772C150.032 49.5234 150.492 49.5654 150.935 49.6603C151.431 49.7699 151.892 49.9677 152.103 50.5383C152.15 50.6685 152.25 50.6396 152.319 50.5566C152.422 50.4254 152.521 50.2897 152.595 50.14C153.14 49.0616 153.5 47.9076 153.831 46.744C154.099 45.7971 154.342 44.8453 154.424 43.8585C154.465 43.3784 154.484 42.8979 154.529 42.4179C154.541 42.2757 154.606 42.1347 154.664 41.998C154.725 41.8524 154.831 41.7748 154.993 41.7785C155.164 41.7825 155.286 41.8655 155.32 42.0311C155.387 42.3311 155.451 42.6354 155.473 42.9432C155.517 43.5188 155.487 44.1015 155.56 44.6733C155.772 46.2593 156.176 47.7919 156.887 49.2069C157.065 49.5674 157.328 49.8809 157.565 50.2071C157.63 50.2932 157.741 50.3447 157.827 50.4136C158.658 49.5333 159.662 49.2851 160.766 49.3554C161.688 49.4126 162.522 49.1114 163.283 48.5903C163.685 48.3146 164.046 47.9757 164.403 47.6366C164.531 47.5149 164.637 47.4372 164.801 47.5034C164.983 47.5744 165.1 47.7197 165.074 47.924C165.048 48.1327 164.997 48.3497 164.91 48.5347C164.547 49.2789 164.005 49.8497 163.355 50.2977C162.458 50.9181 161.477 51.2782 160.404 51.3066C160.204 51.3108 160.004 51.3418 159.803 51.3772C159.707 51.3928 159.615 51.4441 159.518 51.4774C159.514 51.4996 159.509 51.5262 159.504 51.5483C159.627 51.6313 159.741 51.7276 159.872 51.8019C160.459 52.1229 161.046 52.4305 161.633 52.7471C161.818 52.8494 161.99 52.9736 162.174 53.0759C162.802 53.438 163.111 54.0598 163.34 54.7421C163.422 54.9889 163.445 55.2478 163.33 55.4991C163.269 55.6312 163.206 55.6609 163.071 55.5865C162.365 55.2093 161.632 54.8938 160.836 54.7995C160.774 54.7936 160.712 54.7787 160.649 54.7862C159.591 54.8684 158.739 54.3452 157.914 53.7425C157.758 53.632 157.616 53.4995 157.482 53.3628C157.344 53.2171 157.183 53.1777 157.031 53.281C156.836 53.4145 156.629 53.5656 156.5 53.7629C156.293 54.0743 156.135 54.4269 155.985 54.7752C155.739 55.3396 155.521 55.9179 155.275 56.4822C155.222 56.6012 155.108 56.6877 155.022 56.7881C154.942 56.6837 154.844 56.588 154.785 56.4708C154.293 55.4839 153.809 54.4929 153.33 53.5019C153.179 53.1955 153.059 53.1571 152.789 53.3422C152.713 53.3939 152.641 53.4546 152.581 53.5245C151.961 54.2493 151.165 54.6582 150.322 54.9726C149.865 55.1401 149.389 55.0621 148.92 55.0289C148.724 55.0154 148.529 55.0064 148.343 54.9709C147.95 54.8949 147.614 55.0429 147.281 55.2445C147.078 55.3689 146.859 55.4707 146.633 55.5367C146.395 55.6069 146.244 55.4652 146.23 55.2022C146.203 54.7695 146.381 54.4441 146.682 54.1795C147.226 53.7022 147.864 53.4321 148.518 53.2113C148.866 53.0948 149.229 53.0231 149.581 52.9022C149.95 52.7771 150.311 52.6208 150.669 52.4643C150.786 52.4137 150.88 52.3089 150.99 52.2314C150.991 52.2047 150.987 52.1734 150.988 52.1422Z" fill="white"/>
<path d="M75.125 79.2796L9.1849 73.299L51.9178 4.20606L90.9761 73.299L75.125 79.2796Z" fill="#303030"/>
<path d="M75.125 79.2796L9.1849 73.299L51.9178 4.20606M75.125 79.2796L90.9761 73.299L51.9178 4.20606M75.125 79.2796L51.9178 4.20606" stroke="#FF0000" stroke-width="2"/>
<path d="M40.9881 52.1422C40.7532 52.0522 40.5188 51.9442 40.2794 51.8719C39.6355 51.6787 38.9851 51.5789 38.3109 51.6076C38.0903 51.6203 37.8387 51.5343 37.6421 51.4139C36.8798 50.9507 36.3687 50.244 36.04 49.3812C35.9029 49.0262 35.9327 48.6483 36.0162 48.2851C36.086 47.9749 36.3126 47.8867 36.5532 48.0838C36.7611 48.2535 36.9348 48.4668 37.1342 48.6496C37.3865 48.8782 37.643 49.1069 37.9125 49.3091C38.1045 49.4517 38.3247 49.4613 38.5663 49.4402C38.8996 49.4123 39.2439 49.4427 39.5798 49.4772C40.0319 49.5234 40.4924 49.5654 40.9349 49.6603C41.4312 49.7699 41.8921 49.9677 42.103 50.5383C42.1498 50.6685 42.2503 50.6396 42.3188 50.5566C42.4217 50.4254 42.5206 50.2897 42.5948 50.14C43.1401 49.0616 43.5002 47.9076 43.8315 46.744C44.0993 45.7971 44.3423 44.8453 44.424 43.8585C44.4646 43.3784 44.4843 42.8979 44.529 42.4179C44.5407 42.2757 44.6064 42.1347 44.6638 41.998C44.7254 41.8524 44.8312 41.7748 44.9933 41.7785C45.1636 41.7825 45.2863 41.8655 45.3198 42.0311C45.3875 42.3311 45.4509 42.6354 45.4727 42.9432C45.5172 43.5188 45.4867 44.1015 45.5604 44.6733C45.772 46.2593 46.1763 47.7919 46.8867 49.2069C47.0652 49.5674 47.328 49.8809 47.5654 50.2071C47.6299 50.2932 47.741 50.3447 47.8266 50.4136C48.6583 49.5333 49.662 49.2851 50.7662 49.3554C51.6878 49.4126 52.5223 49.1114 53.283 48.5903C53.6845 48.3146 54.046 47.9757 54.4033 47.6366C54.5309 47.5149 54.6367 47.4372 54.8014 47.5034C54.9827 47.5744 55.0998 47.7197 55.0741 47.924C55.0484 48.1327 54.9974 48.3497 54.9099 48.5347C54.5471 49.2789 54.0055 49.8497 53.3546 50.2977C52.4584 50.9181 51.477 51.2782 50.4037 51.3066C50.2041 51.3108 50.0038 51.3418 49.8034 51.3772C49.7074 51.3928 49.6147 51.4441 49.5183 51.4774C49.5136 51.4996 49.5089 51.5262 49.5041 51.5483C49.6269 51.6313 49.741 51.7276 49.8723 51.8019C50.4591 52.1229 51.0463 52.4305 51.6333 52.7471C51.8179 52.8494 51.9896 52.9736 52.1742 53.0759C52.8017 53.438 53.1111 54.0598 53.3402 54.7421C53.4216 54.9889 53.4445 55.2478 53.3305 55.4991C53.2691 55.6312 53.2061 55.6609 53.0706 55.5865C52.3646 55.2093 51.632 54.8938 50.8361 54.7995C50.7738 54.7936 50.7118 54.7787 50.6493 54.7862C49.5913 54.8684 48.739 54.3452 47.9136 53.7425C47.7583 53.632 47.616 53.4995 47.482 53.3628C47.3441 53.2171 47.1829 53.1777 47.0308 53.281C46.8364 53.4145 46.6291 53.5656 46.4996 53.7629C46.2927 54.0743 46.1346 54.4269 45.9849 54.7752C45.7387 55.3396 45.5212 55.9179 45.2749 56.4822C45.2222 56.6012 45.1079 56.6877 45.0223 56.7881C44.9417 56.6837 44.8442 56.588 44.7846 56.4708C44.2926 55.4839 43.809 54.4929 43.3296 53.5019C43.1789 53.1955 43.0592 53.1571 42.7887 53.3422C42.7127 53.3939 42.6406 53.4546 42.5807 53.5245C41.9606 54.2493 41.1651 54.6582 40.322 54.9726C39.8648 55.1401 39.3886 55.0621 38.9196 55.0289C38.7245 55.0154 38.5293 55.0064 38.3431 54.9709C37.9499 54.8949 37.6138 55.0429 37.2806 55.2445C37.0781 55.3689 36.8594 55.4707 36.6334 55.5367C36.3947 55.6069 36.2443 55.4652 36.2297 55.2022C36.2026 54.7695 36.3808 54.4441 36.6823 54.1795C37.2258 53.7022 37.8642 53.4321 38.518 53.2113C38.8659 53.0948 39.2293 53.0231 39.5814 52.9022C39.9502 52.7771 40.3115 52.6208 40.6686 52.4643C40.7862 52.4137 40.8802 52.3089 40.9901 52.2314C40.9907 52.2047 40.9873 52.1734 40.9881 52.1422Z" fill="white"/>
<path d="M619.125 79.2796L553.185 73.299L595.918 4.20606L634.976 73.299L619.125 79.2796Z" fill="#303030"/>
<path d="M619.125 79.2796L553.185 73.299L595.918 4.20606M619.125 79.2796L634.976 73.299L595.918 4.20606M619.125 79.2796L595.918 4.20606" stroke="#7300FF" stroke-width="2"/>
<path d="M584.988 52.1422C584.753 52.0522 584.519 51.9442 584.279 51.8719C583.635 51.6787 582.985 51.5789 582.311 51.6076C582.09 51.6203 581.839 51.5343 581.642 51.4139C580.88 50.9507 580.369 50.244 580.04 49.3812C579.903 49.0262 579.933 48.6483 580.016 48.2851C580.086 47.9749 580.313 47.8867 580.553 48.0838C580.761 48.2535 580.935 48.4668 581.134 48.6496C581.386 48.8782 581.643 49.1069 581.913 49.3091C582.105 49.4517 582.325 49.4613 582.566 49.4402C582.9 49.4123 583.244 49.4427 583.58 49.4772C584.032 49.5234 584.492 49.5654 584.935 49.6603C585.431 49.7699 585.892 49.9677 586.103 50.5383C586.15 50.6685 586.25 50.6396 586.319 50.5566C586.422 50.4254 586.521 50.2897 586.595 50.14C587.14 49.0616 587.5 47.9076 587.831 46.744C588.099 45.7971 588.342 44.8453 588.424 43.8585C588.465 43.3784 588.484 42.8979 588.529 42.4179C588.541 42.2757 588.606 42.1347 588.664 41.998C588.725 41.8524 588.831 41.7748 588.993 41.7785C589.164 41.7825 589.286 41.8655 589.32 42.0311C589.387 42.3311 589.451 42.6354 589.473 42.9432C589.517 43.5188 589.487 44.1015 589.56 44.6733C589.772 46.2593 590.176 47.7919 590.887 49.2069C591.065 49.5674 591.328 49.8809 591.565 50.2071C591.63 50.2932 591.741 50.3447 591.827 50.4136C592.658 49.5333 593.662 49.2851 594.766 49.3554C595.688 49.4126 596.522 49.1114 597.283 48.5903C597.685 48.3146 598.046 47.9757 598.403 47.6366C598.531 47.5149 598.637 47.4372 598.801 47.5034C598.983 47.5744 599.1 47.7197 599.074 47.924C599.048 48.1327 598.997 48.3497 598.91 48.5347C598.547 49.2789 598.005 49.8497 597.355 50.2977C596.458 50.9181 595.477 51.2782 594.404 51.3066C594.204 51.3108 594.004 51.3418 593.803 51.3772C593.707 51.3928 593.615 51.4441 593.518 51.4774C593.514 51.4996 593.509 51.5262 593.504 51.5483C593.627 51.6313 593.741 51.7276 593.872 51.8019C594.459 52.1229 595.046 52.4305 595.633 52.7471C595.818 52.8494 595.99 52.9736 596.174 53.0759C596.802 53.438 597.111 54.0598 597.34 54.7421C597.422 54.9889 597.445 55.2478 597.33 55.4991C597.269 55.6312 597.206 55.6609 597.071 55.5865C596.365 55.2093 595.632 54.8938 594.836 54.7995C594.774 54.7936 594.712 54.7787 594.649 54.7862C593.591 54.8684 592.739 54.3452 591.914 53.7425C591.758 53.632 591.616 53.4995 591.482 53.3628C591.344 53.2171 591.183 53.1777 591.031 53.281C590.836 53.4145 590.629 53.5656 590.5 53.7629C590.293 54.0743 590.135 54.4269 589.985 54.7752C589.739 55.3396 589.521 55.9179 589.275 56.4822C589.222 56.6012 589.108 56.6877 589.022 56.7881C588.942 56.6837 588.844 56.588 588.785 56.4708C588.293 55.4839 587.809 54.4929 587.33 53.5019C587.179 53.1955 587.059 53.1571 586.789 53.3422C586.713 53.3939 586.641 53.4546 586.581 53.5245C585.961 54.2493 585.165 54.6582 584.322 54.9726C583.865 55.1401 583.389 55.0621 582.92 55.0289C582.724 55.0154 582.529 55.0064 582.343 54.9709C581.95 54.8949 581.614 55.0429 581.281 55.2445C581.078 55.3689 580.859 55.4707 580.633 55.5367C580.395 55.6069 580.244 55.4652 580.23 55.2022C580.203 54.7695 580.381 54.4441 580.682 54.1795C581.226 53.7022 581.864 53.4321 582.518 53.2113C582.866 53.0948 583.229 53.0231 583.581 52.9022C583.95 52.7771 584.311 52.6208 584.669 52.4643C584.786 52.4137 584.88 52.3089 584.99 52.2314C584.991 52.2047 584.987 52.1734 584.988 52.1422Z" fill="white"/>
<path d="M403.125 79.2796L337.185 73.299L379.918 4.20606L418.976 73.299L403.125 79.2796Z" fill="#303030"/>
<path d="M403.125 79.2796L337.185 73.299L379.918 4.20606M403.125 79.2796L418.976 73.299L379.918 4.20606M403.125 79.2796L379.918 4.20606" stroke="#00FFE1" stroke-width="2"/>
<path d="M368.988 52.1422C368.753 52.0522 368.519 51.9442 368.279 51.8719C367.635 51.6787 366.985 51.5789 366.311 51.6076C366.09 51.6203 365.839 51.5343 365.642 51.4139C364.88 50.9507 364.369 50.244 364.04 49.3812C363.903 49.0262 363.933 48.6483 364.016 48.2851C364.086 47.9749 364.313 47.8867 364.553 48.0838C364.761 48.2535 364.935 48.4668 365.134 48.6496C365.386 48.8782 365.643 49.1069 365.913 49.3091C366.105 49.4517 366.325 49.4613 366.566 49.4402C366.9 49.4123 367.244 49.4427 367.58 49.4772C368.032 49.5234 368.492 49.5654 368.935 49.6603C369.431 49.7699 369.892 49.9677 370.103 50.5383C370.15 50.6685 370.25 50.6396 370.319 50.5566C370.422 50.4254 370.521 50.2897 370.595 50.14C371.14 49.0616 371.5 47.9076 371.831 46.744C372.099 45.7971 372.342 44.8453 372.424 43.8585C372.465 43.3784 372.484 42.8979 372.529 42.4179C372.541 42.2757 372.606 42.1347 372.664 41.998C372.725 41.8524 372.831 41.7748 372.993 41.7785C373.164 41.7825 373.286 41.8655 373.32 42.0311C373.387 42.3311 373.451 42.6354 373.473 42.9432C373.517 43.5188 373.487 44.1015 373.56 44.6733C373.772 46.2593 374.176 47.7919 374.887 49.2069C375.065 49.5674 375.328 49.8809 375.565 50.2071C375.63 50.2932 375.741 50.3447 375.827 50.4136C376.658 49.5333 377.662 49.2851 378.766 49.3554C379.688 49.4126 380.522 49.1114 381.283 48.5903C381.685 48.3146 382.046 47.9757 382.403 47.6366C382.531 47.5149 382.637 47.4372 382.801 47.5034C382.983 47.5744 383.1 47.7197 383.074 47.924C383.048 48.1327 382.997 48.3497 382.91 48.5347C382.547 49.2789 382.005 49.8497 381.355 50.2977C380.458 50.9181 379.477 51.2782 378.404 51.3066C378.204 51.3108 378.004 51.3418 377.803 51.3772C377.707 51.3928 377.615 51.4441 377.518 51.4774C377.514 51.4996 377.509 51.5262 377.504 51.5483C377.627 51.6313 377.741 51.7276 377.872 51.8019C378.459 52.1229 379.046 52.4305 379.633 52.7471C379.818 52.8494 379.99 52.9736 380.174 53.0759C380.802 53.438 381.111 54.0598 381.34 54.7421C381.422 54.9889 381.445 55.2478 381.33 55.4991C381.269 55.6312 381.206 55.6609 381.071 55.5865C380.365 55.2093 379.632 54.8938 378.836 54.7995C378.774 54.7936 378.712 54.7787 378.649 54.7862C377.591 54.8684 376.739 54.3452 375.914 53.7425C375.758 53.632 375.616 53.4995 375.482 53.3628C375.344 53.2171 375.183 53.1777 375.031 53.281C374.836 53.4145 374.629 53.5656 374.5 53.7629C374.293 54.0743 374.135 54.4269 373.985 54.7752C373.739 55.3396 373.521 55.9179 373.275 56.4822C373.222 56.6012 373.108 56.6877 373.022 56.7881C372.942 56.6837 372.844 56.588 372.785 56.4708C372.293 55.4839 371.809 54.4929 371.33 53.5019C371.179 53.1955 371.059 53.1571 370.789 53.3422C370.713 53.3939 370.641 53.4546 370.581 53.5245C369.961 54.2493 369.165 54.6582 368.322 54.9726C367.865 55.1401 367.389 55.0621 366.92 55.0289C366.724 55.0154 366.529 55.0064 366.343 54.9709C365.95 54.8949 365.614 55.0429 365.281 55.2445C365.078 55.3689 364.859 55.4707 364.633 55.5367C364.395 55.6069 364.244 55.4652 364.23 55.2022C364.203 54.7695 364.381 54.4441 364.682 54.1795C365.226 53.7022 365.864 53.4321 366.518 53.2113C366.866 53.0948 367.229 53.0231 367.581 52.9022C367.95 52.7771 368.311 52.6208 368.669 52.4643C368.786 52.4137 368.88 52.3089 368.99 52.2314C368.991 52.2047 368.987 52.1734 368.988 52.1422Z" fill="white"/>
<path d="M511.125 79.2796L445.185 73.299L487.918 4.20606L526.976 73.299L511.125 79.2796Z" fill="#303030"/>
<path d="M511.125 79.2796L445.185 73.299L487.918 4.20606M511.125 79.2796L526.976 73.299L487.918 4.20606M511.125 79.2796L487.918 4.20606" stroke="#006FFF" stroke-width="2"/>
<path d="M476.988 52.1422C476.753 52.0522 476.519 51.9442 476.279 51.8719C475.635 51.6787 474.985 51.5789 474.311 51.6076C474.09 51.6203 473.839 51.5343 473.642 51.4139C472.88 50.9507 472.369 50.244 472.04 49.3812C471.903 49.0262 471.933 48.6483 472.016 48.2851C472.086 47.9749 472.313 47.8867 472.553 48.0838C472.761 48.2535 472.935 48.4668 473.134 48.6496C473.386 48.8782 473.643 49.1069 473.913 49.3091C474.105 49.4517 474.325 49.4613 474.566 49.4402C474.9 49.4123 475.244 49.4427 475.58 49.4772C476.032 49.5234 476.492 49.5654 476.935 49.6603C477.431 49.7699 477.892 49.9677 478.103 50.5383C478.15 50.6685 478.25 50.6396 478.319 50.5566C478.422 50.4254 478.521 50.2897 478.595 50.14C479.14 49.0616 479.5 47.9076 479.831 46.744C480.099 45.7971 480.342 44.8453 480.424 43.8585C480.465 43.3784 480.484 42.8979 480.529 42.4179C480.541 42.2757 480.606 42.1347 480.664 41.998C480.725 41.8524 480.831 41.7748 480.993 41.7785C481.164 41.7825 481.286 41.8655 481.32 42.0311C481.387 42.3311 481.451 42.6354 481.473 42.9432C481.517 43.5188 481.487 44.1015 481.56 44.6733C481.772 46.2593 482.176 47.7919 482.887 49.2069C483.065 49.5674 483.328 49.8809 483.565 50.2071C483.63 50.2932 483.741 50.3447 483.827 50.4136C484.658 49.5333 485.662 49.2851 486.766 49.3554C487.688 49.4126 488.522 49.1114 489.283 48.5903C489.685 48.3146 490.046 47.9757 490.403 47.6366C490.531 47.5149 490.637 47.4372 490.801 47.5034C490.983 47.5744 491.1 47.7197 491.074 47.924C491.048 48.1327 490.997 48.3497 490.91 48.5347C490.547 49.2789 490.005 49.8497 489.355 50.2977C488.458 50.9181 487.477 51.2782 486.404 51.3066C486.204 51.3108 486.004 51.3418 485.803 51.3772C485.707 51.3928 485.615 51.4441 485.518 51.4774C485.514 51.4996 485.509 51.5262 485.504 51.5483C485.627 51.6313 485.741 51.7276 485.872 51.8019C486.459 52.1229 487.046 52.4305 487.633 52.7471C487.818 52.8494 487.99 52.9736 488.174 53.0759C488.802 53.438 489.111 54.0598 489.34 54.7421C489.422 54.9889 489.445 55.2478 489.33 55.4991C489.269 55.6312 489.206 55.6609 489.071 55.5865C488.365 55.2093 487.632 54.8938 486.836 54.7995C486.774 54.7936 486.712 54.7787 486.649 54.7862C485.591 54.8684 484.739 54.3452 483.914 53.7425C483.758 53.632 483.616 53.4995 483.482 53.3628C483.344 53.2171 483.183 53.1777 483.031 53.281C482.836 53.4145 482.629 53.5656 482.5 53.7629C482.293 54.0743 482.135 54.4269 481.985 54.7752C481.739 55.3396 481.521 55.9179 481.275 56.4822C481.222 56.6012 481.108 56.6877 481.022 56.7881C480.942 56.6837 480.844 56.588 480.785 56.4708C480.293 55.4839 479.809 54.4929 479.33 53.5019C479.179 53.1955 479.059 53.1571 478.789 53.3422C478.713 53.3939 478.641 53.4546 478.581 53.5245C477.961 54.2493 477.165 54.6582 476.322 54.9726C475.865 55.1401 475.389 55.0621 474.92 55.0289C474.724 55.0154 474.529 55.0064 474.343 54.9709C473.95 54.8949 473.614 55.0429 473.281 55.2445C473.078 55.3689 472.859 55.4707 472.633 55.5367C472.395 55.6069 472.244 55.4652 472.23 55.2022C472.203 54.7695 472.381 54.4441 472.682 54.1795C473.226 53.7022 473.864 53.4321 474.518 53.2113C474.866 53.0948 475.229 53.0231 475.581 52.9022C475.95 52.7771 476.311 52.6208 476.669 52.4643C476.786 52.4137 476.88 52.3089 476.99 52.2314C476.991 52.2047 476.987 52.1734 476.988 52.1422Z" fill="white"/>
</svg>
