<svg width="66" height="66" viewBox="0 0 66 66" fill="none" xmlns="http://www.w3.org/2000/svg">
<rect width="66" height="66" rx="15" fill="black"/>
<path d="M26.2802 35.9833C25.9441 35.8734 25.6079 35.7397 25.2662 35.6536C24.3471 35.424 23.4233 35.3191 22.4717 35.3865C22.1604 35.4129 21.8009 35.3092 21.5173 35.1572C20.4187 34.5729 19.6638 33.6533 19.1597 32.5178C18.9497 32.0506 18.9745 31.5457 19.0759 31.0581C19.1603 30.6418 19.4766 30.5144 19.8256 30.7667C20.1274 30.9838 20.3827 31.2606 20.6728 31.4956C21.04 31.7893 21.4129 32.083 21.8032 32.3408C22.0812 32.5226 22.3927 32.5258 22.7333 32.4872C23.2031 32.4357 23.6912 32.4613 24.1676 32.4928C24.8087 32.5348 25.4615 32.5709 26.0914 32.6782C26.7979 32.8029 27.4585 33.0465 27.7827 33.7978C27.8548 33.9692 27.9955 33.9265 28.0885 33.8129C28.2279 33.6336 28.3615 33.4485 28.4595 33.2458C29.1809 31.7852 29.6371 30.2318 30.052 28.667C30.3872 27.3937 30.6871 26.1148 30.7573 24.7963C30.7927 24.1548 30.7986 23.5136 30.8397 22.8721C30.8498 22.6821 30.9362 22.4914 31.011 22.3067C31.0915 22.1101 31.2375 22.002 31.4667 22C31.7077 21.998 31.8849 22.1033 31.9398 22.3225C32.0492 22.7193 32.1529 23.1221 32.1978 23.5314C32.287 24.2964 32.2706 25.0742 32.4009 25.833C32.7727 27.9373 33.4143 29.9622 34.4833 31.8171C34.7521 32.2897 35.1379 32.6961 35.4885 33.1206C35.5836 33.2325 35.7429 33.2964 35.8671 33.3845C37.0024 32.1755 38.4096 31.8014 39.9737 31.8474C41.2789 31.8838 42.4446 31.4464 43.4961 30.7191C44.051 30.3344 44.5464 29.8672 45.0359 29.3999C45.2107 29.2322 45.3566 29.1241 45.5925 29.2052C45.8519 29.2921 46.0241 29.4806 45.9972 29.7539C45.9704 30.0331 45.9083 30.3245 45.7931 30.5749C45.3144 31.5822 44.5749 32.3662 43.6754 32.9913C42.4372 33.8567 41.0665 34.3789 39.5507 34.4632C39.2687 34.4774 38.987 34.5273 38.7053 34.5832C38.5704 34.608 38.4417 34.6804 38.307 34.729C38.3014 34.7588 38.2959 34.7944 38.2902 34.8241C38.4675 34.9294 38.6332 35.0527 38.8222 35.1462C39.6664 35.5485 40.5104 35.9331 41.3546 36.3297C41.6203 36.458 41.8686 36.6161 42.1342 36.7444C43.0378 37.1998 43.5037 38.0151 43.8586 38.9144C43.9851 39.2398 44.0293 39.5838 43.8796 39.9235C43.7989 40.1022 43.7112 40.1446 43.5163 40.0512C42.501 39.5791 41.4512 39.1902 40.3218 39.099C40.2335 39.0938 40.1452 39.0767 40.0571 39.0894C38.5655 39.2445 37.3369 38.5842 36.1425 37.8166C35.918 37.6761 35.7107 37.5058 35.515 37.3293C35.3135 37.1411 35.0838 37.0956 34.8736 37.2398C34.6049 37.4262 34.3188 37.6364 34.1449 37.9049C33.8666 38.3288 33.6593 38.8055 33.4637 39.2761C33.1415 40.0388 32.8605 40.8189 32.5383 41.5815C32.4692 41.7424 32.3116 41.8625 32.1953 42C32.0765 41.8644 31.9344 41.7411 31.8448 41.5874C31.1041 40.2936 30.3752 38.9939 29.6521 37.694C29.4251 37.2923 29.2542 37.2462 28.8804 37.5046C28.7752 37.5768 28.676 37.6607 28.5946 37.7564C27.7513 38.7491 26.6457 39.3284 25.4683 39.7837C24.8298 40.0266 24.1531 39.9433 23.4887 39.9194C23.2123 39.9098 22.936 39.9063 22.6711 39.8669C22.112 39.7827 21.6436 39.9944 21.1819 40.2774C20.9013 40.4519 20.597 40.597 20.2804 40.6948C19.9463 40.7985 19.7272 40.6163 19.6946 40.2664C19.6365 39.691 19.8734 39.2497 20.2875 38.884C21.0339 38.2246 21.9238 37.8371 22.8378 37.5146C23.3242 37.3443 23.8345 37.2331 24.3267 37.0567C24.8423 36.8742 25.3458 36.6503 25.8434 36.4263C26.0073 36.3537 26.1353 36.2101 26.2871 36.102C26.2868 36.0664 26.2806 36.0249 26.2802 35.9833Z" fill="white"/>
</svg>
