<svg width="27" height="20" viewBox="0 0 27 20" fill="none" xmlns="http://www.w3.org/2000/svg">
<path d="M7.28018 13.9833C6.94414 13.8734 6.60787 13.7397 6.26616 13.6536C5.34709 13.424 4.42329 13.3191 3.47166 13.3865C3.16036 13.4129 2.80086 13.3092 2.51733 13.1572C1.4187 12.5729 0.66382 11.6533 0.159732 10.5178C-0.0502509 10.0506 -0.0254536 9.54574 0.0759127 9.05808C0.160295 8.64179 0.476551 8.51443 0.825649 8.76672C1.1274 8.9838 1.38268 9.26065 1.67285 9.49564C2.03995 9.78932 2.41295 10.083 2.80324 10.3408C3.08116 10.5226 3.39272 10.5258 3.7333 10.4872C4.20308 10.4357 4.69119 10.4613 5.1676 10.4928C5.80868 10.5348 6.46147 10.5709 7.0914 10.6782C7.79789 10.8029 8.45846 11.0465 8.7827 11.7978C8.8548 11.9692 8.99549 11.9265 9.0885 11.8129C9.22794 11.6336 9.36145 11.4485 9.45953 11.2458C10.1809 9.78517 10.6371 8.23183 11.052 6.66698C11.3872 5.3937 11.6871 4.11478 11.7573 2.79626C11.7927 2.15481 11.7986 1.51362 11.8397 0.872116C11.8498 0.68206 11.9362 0.491353 12.011 0.306682C12.0915 0.110089 12.2375 0.001985 12.4667 2.95032e-05C12.7077 -0.00202614 12.8849 0.103319 12.9398 0.322503C13.0492 0.719319 13.1529 1.12212 13.1978 1.53136C13.287 2.29641 13.2706 3.07425 13.4009 3.83301C13.7727 5.93731 14.4143 7.96215 15.4833 9.81711C15.7521 10.2897 16.1379 10.6961 16.4885 11.1206C16.5836 11.2325 16.7429 11.2964 16.8671 11.3845C18.0024 10.1755 19.4096 9.80141 20.9737 9.84744C22.2789 9.88379 23.4446 9.44642 24.4961 8.71912C25.051 8.33445 25.5464 7.86716 26.0359 7.39994C26.2107 7.23223 26.3566 7.12412 26.5925 7.20522C26.8519 7.29206 27.0241 7.48056 26.9972 7.75387C26.9704 8.03311 26.9083 8.32454 26.7931 8.57485C26.3144 9.58222 25.5749 10.3662 24.6754 10.9913C23.4372 11.8567 22.0665 12.3789 20.5507 12.4632C20.2687 12.4774 19.987 12.5273 19.7053 12.5832C19.5704 12.608 19.4417 12.6804 19.307 12.729C19.3014 12.7588 19.2959 12.7944 19.2902 12.8241C19.4675 12.9294 19.6332 13.0527 19.8222 13.1462C20.6664 13.5485 21.5104 13.9331 22.3546 14.3297C22.6203 14.458 22.8686 14.6161 23.1342 14.7444C24.0378 15.1998 24.5037 16.0151 24.8586 16.9144C24.9851 17.2398 25.0293 17.5838 24.8796 17.9235C24.7989 18.1022 24.7112 18.1446 24.5163 18.0512C23.501 17.5791 22.4512 17.1902 21.3218 17.099C21.2335 17.0938 21.1452 17.0767 21.0571 17.0894C19.5655 17.2445 18.3369 16.5842 17.1425 15.8166C16.918 15.6761 16.7107 15.5058 16.515 15.3293C16.3135 15.1411 16.0838 15.0956 15.8736 15.2398C15.6049 15.4262 15.3188 15.6364 15.1449 15.9049C14.8666 16.3288 14.6593 16.8055 14.4637 17.2761C14.1415 18.0388 13.8605 18.8189 13.5383 19.5815C13.4692 19.7424 13.3116 19.8625 13.1953 20C13.0765 19.8644 12.9344 19.7411 12.8448 19.5874C12.1041 18.2936 11.3752 16.9939 10.6521 15.694C10.4251 15.2923 10.2542 15.2462 9.88036 15.5046C9.77521 15.5768 9.67604 15.6607 9.59462 15.7564C8.75134 16.7491 7.64567 17.3284 6.46832 17.7837C5.82983 18.0266 5.1531 17.9433 4.48866 17.9194C4.2123 17.9098 3.93601 17.9063 3.67114 17.8669C3.11196 17.7827 2.64364 17.9944 2.18185 18.2774C1.90129 18.4519 1.59696 18.597 1.28044 18.6948C0.946329 18.7985 0.727178 18.6163 0.694604 18.2664C0.636471 17.691 0.87345 17.2497 1.28746 16.884C2.03385 16.2246 2.92379 15.8371 3.83783 15.5146C4.32415 15.3443 4.83454 15.2331 5.32669 15.0567C5.84229 14.8742 6.34576 14.6503 6.84336 14.4263C7.00728 14.3537 7.1353 14.2101 7.28713 14.102C7.28681 14.0664 7.28056 14.0249 7.28018 13.9833Z" fill="white"/>
</svg>
