<svg width="66" height="66" viewBox="0 0 66 66" fill="none" xmlns="http://www.w3.org/2000/svg">
<rect width="66" height="66" rx="30" fill="white"/>
<circle cx="33" cy="51" r="5" fill="#1B1B1B"/>
<circle cx="33" cy="16" r="5" fill="#1B1B1B"/>
<circle cx="17" cy="26" r="5" fill="#1B1B1B"/>
<circle cx="49" cy="26" r="5" fill="#1B1B1B"/>
<circle cx="17" cy="43" r="5" fill="#1B1B1B"/>
<circle cx="49" cy="43" r="5" fill="#1B1B1B"/>
<path d="M29.1231 35.7883C28.8866 35.7114 28.65 35.6178 28.4095 35.5575C27.7628 35.3968 27.1127 35.3234 26.443 35.3706C26.224 35.3891 25.971 35.3164 25.7715 35.21C24.9983 34.8011 24.4671 34.1573 24.1124 33.3625C23.9646 33.0354 23.9821 32.682 24.0534 32.3407C24.1128 32.0493 24.3354 31.9601 24.581 32.1367C24.7934 32.2887 24.973 32.4825 25.1772 32.6469C25.4355 32.8525 25.698 33.0581 25.9727 33.2386C26.1682 33.3658 26.3875 33.368 26.6271 33.3411C26.9577 33.305 27.3012 33.3229 27.6365 33.345C28.0876 33.3744 28.547 33.3996 28.9902 33.4748C29.4874 33.562 29.9522 33.7326 30.1804 34.2584C30.2312 34.3785 30.3302 34.3486 30.3956 34.2691C30.4937 34.1435 30.5877 34.0139 30.6567 33.8721C31.1644 32.8496 31.4854 31.7623 31.7773 30.6669C32.0132 29.7756 32.2242 28.8803 32.2737 27.9574C32.2986 27.5084 32.3027 27.0595 32.3317 26.6105C32.3387 26.4774 32.3996 26.3439 32.4522 26.2147C32.5088 26.0771 32.6116 26.0014 32.7729 26C32.9425 25.9986 33.0672 26.0723 33.1058 26.2258C33.1828 26.5035 33.2557 26.7855 33.2873 27.072C33.3501 27.6075 33.3386 28.152 33.4302 28.6831C33.6919 30.1561 34.1434 31.5735 34.8957 32.872C35.0848 33.2028 35.3563 33.4873 35.603 33.7844C35.6699 33.8627 35.782 33.9075 35.8695 33.9691C36.6683 33.1229 37.6586 32.861 38.7592 32.8932C39.6777 32.9187 40.4981 32.6125 41.238 32.1034C41.6285 31.8341 41.9771 31.507 42.3216 31.18C42.4445 31.0626 42.5473 30.9869 42.7132 31.0437C42.8958 31.1044 43.017 31.2364 42.9981 31.4277C42.9792 31.6232 42.9355 31.8272 42.8544 32.0024C42.5175 32.7076 41.9972 33.2564 41.3642 33.6939C40.4928 34.2997 39.5283 34.6653 38.4616 34.7242C38.2632 34.7342 38.0649 34.7691 37.8667 34.8082C37.7718 34.8256 37.6812 34.8763 37.5864 34.9103C37.5825 34.9311 37.5786 34.9561 37.5746 34.9769C37.6994 35.0506 37.816 35.1369 37.9489 35.2023C38.543 35.484 39.137 35.7532 39.731 36.0308C39.918 36.1206 40.0927 36.2313 40.2797 36.3211C40.9155 36.6399 41.2433 37.2106 41.4931 37.8401C41.5821 38.0679 41.6132 38.3087 41.5079 38.5464C41.4511 38.6716 41.3893 38.7012 41.2522 38.6359C40.5378 38.3053 39.799 38.0332 39.0042 37.9693C38.9421 37.9657 38.88 37.9537 38.818 37.9626C37.7683 38.0712 36.9037 37.6089 36.0633 37.0716C35.9052 36.9733 35.7594 36.854 35.6217 36.7305C35.4799 36.5988 35.3183 36.5669 35.1703 36.6679C34.9812 36.7983 34.7799 36.9455 34.6575 37.1334C34.4617 37.4302 34.3158 37.7639 34.1782 38.0933C33.9514 38.6272 33.7537 39.1732 33.527 39.7071C33.4783 39.8197 33.3674 39.9037 33.2856 40C33.202 39.9051 33.102 39.8187 33.0389 39.7112C32.5177 38.8055 32.0048 37.8957 31.4959 36.9858C31.3362 36.7046 31.2159 36.6723 30.9528 36.8532C30.8789 36.9038 30.8091 36.9625 30.7518 37.0295C30.1584 37.7243 29.3803 38.1299 28.5518 38.4486C28.1025 38.6186 27.6263 38.5603 27.1587 38.5436C26.9642 38.5368 26.7698 38.5344 26.5834 38.5068C26.1899 38.4479 25.8603 38.5961 25.5354 38.7942C25.3379 38.9163 25.1238 39.0179 24.901 39.0863C24.6659 39.159 24.5117 39.0314 24.4888 38.7865C24.4479 38.3837 24.6146 38.0748 24.906 37.8188C25.4312 37.3572 26.0575 37.086 26.7007 36.8603C27.0429 36.741 27.4021 36.6632 27.7484 36.5397C28.1112 36.4119 28.4655 36.2552 28.8157 36.0984C28.931 36.0476 29.0211 35.9471 29.128 35.8714C29.1278 35.8465 29.1234 35.8174 29.1231 35.7883Z" fill="black"/>
</svg>
